HIERARCHY
ROOT Hips
{
  OFFSET -21.4546 93.2708 28.3923
  CHANNELS 6 Xposition Yposition Zposition Zrotation Xrotation Yrotation
  JOINT Spine
  {
    OFFSET 0 8 0
    CHANNELS 6 Xposition Yposition Zposition Zrotation Xrotation Yrotation
    JOINT Spine1
    {
      OFFSET 0 8 0
      CHANNELS 6 Xposition Yposition Zposition Zrotation Xrotation Yrotation
      JOINT Spine2
      {
        OFFSET 0 8 0
        CHANNELS 6 Xposition Yposition Zposition Zrotation Xrotation Yrotation
        JOINT Spine3
        {
          OFFSET 0 8 0
          CHANNELS 6 Xposition Yposition Zposition Zrotation Xrotation Yrotation
          JOINT Neck
          {
            OFFSET 0 17 0
            CHANNELS 6 Xposition Yposition Zposition Zrotation Xrotation Yrotation
            JOINT Head
            {
              OFFSET 0 10.8 0
              CHANNELS 6 Xposition Yposition Zposition Zrotation Xrotation Yrotation
              End Site
              {
                OFFSET 0 20.25 0
              }
            }
          }
          JOINT LeftShoulder
          {
            OFFSET 5 17 0
            CHANNELS 6 Xposition Yposition Zposition Zrotation Xrotation Yrotation
            JOINT LeftShoulder2
            {
              OFFSET 6.45 0 0
              CHANNELS 6 Xposition Yposition Zposition Zrotation Xrotation Yrotation
              JOINT LeftArm
              {
                OFFSET 6.45 0 0
                CHANNELS 6 Xposition Yposition Zposition Zrotation Xrotation Yrotation
                JOINT LeftForeArm
                {
                  OFFSET 0 -32.4 -2
                  CHANNELS 6 Xposition Yposition Zposition Zrotation Xrotation Yrotation
                  JOINT LeftHand
                  {
                    OFFSET 0 -25.65 2
                    CHANNELS 6 Xposition Yposition Zposition Zrotation Xrotation Yrotation
                    JOINT LeftHandThumb1
                    {
                      OFFSET -0.5 -1.5 2.65
                      CHANNELS 6 Xposition Yposition Zposition Zrotation Xrotation Yrotation
                      JOINT LeftHandThumb2
                      {
                        OFFSET 0 -3.8 3.7
                        CHANNELS 6 Xposition Yposition Zposition Zrotation Xrotation Yrotation
                        JOINT LeftHandThumb3
                        {
                          OFFSET 0 -3 2.7
                          CHANNELS 6 Xposition Yposition Zposition Zrotation Xrotation Yrotation
                          End Site
                          {
                            OFFSET 0 -2.3 1.8
                          }
                        }
                      }
                    }
                    JOINT LeftHandIndex
                    {
                      OFFSET 0 -1.9 1.6
                      CHANNELS 6 Xposition Yposition Zposition Zrotation Xrotation Yrotation
                      JOINT LeftHandIndex1
                      {
                        OFFSET 0 -8.3 1.9
                        CHANNELS 6 Xposition Yposition Zposition Zrotation Xrotation Yrotation
                        JOINT LeftHandIndex2
                        {
                          OFFSET 0 -4.5 0
                          CHANNELS 6 Xposition Yposition Zposition Zrotation Xrotation Yrotation
                          JOINT LeftHandIndex3
                          {
                            OFFSET 0 -3.4 0
                            CHANNELS 6 Xposition Yposition Zposition Zrotation Xrotation Yrotation
                            End Site
                            {
                              OFFSET 0 -2.6 0
                            }
                          }
                        }
                      }
                    }
                    JOINT LeftHandMiddle
                    {
                      OFFSET -0.25 -2.2 0.4
                      CHANNELS 6 Xposition Yposition Zposition Zrotation Xrotation Yrotation
                      JOINT LeftHandMiddle1
                      {
                        OFFSET 0 -8.3 1
                        CHANNELS 6 Xposition Yposition Zposition Zrotation Xrotation Yrotation
                        JOINT LeftHandMiddle2
                        {
                          OFFSET 0 -4.65 0
                          CHANNELS 6 Xposition Yposition Zposition Zrotation Xrotation Yrotation
                          JOINT LeftHandMiddle3
                          {
                            OFFSET 0 -3.3 0
                            CHANNELS 6 Xposition Yposition Zposition Zrotation Xrotation Yrotation
                            End Site
                            {
                              OFFSET 0 -2.7 0
                            }
                          }
                        }
                      }
                    }
                    JOINT LeftHandRing
                    {
                      OFFSET -0.5 -2.15 -0.8
                      CHANNELS 6 Xposition Yposition Zposition Zrotation Xrotation Yrotation
                      JOINT LeftHandRing1
                      {
                        OFFSET 0 -7.75 -0.2
                        CHANNELS 6 Xposition Yposition Zposition Zrotation Xrotation Yrotation
                        JOINT LeftHandRing2
                        {
                          OFFSET 0 -3.8 0
                          CHANNELS 6 Xposition Yposition Zposition Zrotation Xrotation Yrotation
                          JOINT LeftHandRing3
                          {
                            OFFSET 0 -3.4 0
                            CHANNELS 6 Xposition Yposition Zposition Zrotation Xrotation Yrotation
                            End Site
                            {
                              OFFSET 0 -2.6 0
                            }
                          }
                        }
                      }
                    }
                    JOINT LeftHandPinky
                    {
                      OFFSET -0.75 -1.75 -1.85
                      CHANNELS 6 Xposition Yposition Zposition Zrotation Xrotation Yrotation
                      JOINT LeftHandPinky1
                      {
                        OFFSET 0 -7.15 -1
                        CHANNELS 6 Xposition Yposition Zposition Zrotation Xrotation Yrotation
                        JOINT LeftHandPinky2
                        {
                          OFFSET 0 -3 0
                          CHANNELS 6 Xposition Yposition Zposition Zrotation Xrotation Yrotation
                          JOINT LeftHandPinky3
                          {
                            OFFSET 0 -2.35 0
                            CHANNELS 6 Xposition Yposition Zposition Zrotation Xrotation Yrotation
                            End Site
                            {
                              OFFSET 0 -2.1 0
                            }
                          }
                        }
                      }
                    }
                  }
                }
              }
            }
          }
          JOINT RightShoulder
          {
            OFFSET -5 17 0
            CHANNELS 6 Xposition Yposition Zposition Zrotation Xrotation Yrotation
            JOINT RightShoulder2
            {
              OFFSET -6.45 0 0
              CHANNELS 6 Xposition Yposition Zposition Zrotation Xrotation Yrotation
              JOINT RightArm
              {
                OFFSET -6.45 0 0
                CHANNELS 6 Xposition Yposition Zposition Zrotation Xrotation Yrotation
                JOINT RightForeArm
                {
                  OFFSET 0 -32.4 -2
                  CHANNELS 6 Xposition Yposition Zposition Zrotation Xrotation Yrotation
                  JOINT RightHand
                  {
                    OFFSET 0 -25.65 2
                    CHANNELS 6 Xposition Yposition Zposition Zrotation Xrotation Yrotation
                    JOINT RightHandThumb1
                    {
                      OFFSET 0.5 -1.5 2.65
                      CHANNELS 6 Xposition Yposition Zposition Zrotation Xrotation Yrotation
                      JOINT RightHandThumb2
                      {
                        OFFSET 0 -3.8 3.7
                        CHANNELS 6 Xposition Yposition Zposition Zrotation Xrotation Yrotation
                        JOINT RightHandThumb3
                        {
                          OFFSET 0 -3 2.7
                          CHANNELS 6 Xposition Yposition Zposition Zrotation Xrotation Yrotation
                          End Site
                          {
                            OFFSET 0 -2.3 1.8
                          }
                        }
                      }
                    }
                    JOINT RightHandIndex
                    {
                      OFFSET 0 -1.9 1.6
                      CHANNELS 6 Xposition Yposition Zposition Zrotation Xrotation Yrotation
                      JOINT RightHandIndex1
                      {
                        OFFSET 0 -8.3 1.9
                        CHANNELS 6 Xposition Yposition Zposition Zrotation Xrotation Yrotation
                        JOINT RightHandIndex2
                        {
                          OFFSET 0 -4.5 0
                          CHANNELS 6 Xposition Yposition Zposition Zrotation Xrotation Yrotation
                          JOINT RightHandIndex3
                          {
                            OFFSET 0 -3.4 0
                            CHANNELS 6 Xposition Yposition Zposition Zrotation Xrotation Yrotation
                            End Site
                            {
                              OFFSET 0 -2.6 0
                            }
                          }
                        }
                      }
                    }
                    JOINT RightHandMiddle
                    {
                      OFFSET 0.25 -2.2 0.4
                      CHANNELS 6 Xposition Yposition Zposition Zrotation Xrotation Yrotation
                      JOINT RightHandMiddle1
                      {
                        OFFSET 0 -8.3 1
                        CHANNELS 6 Xposition Yposition Zposition Zrotation Xrotation Yrotation
                        JOINT RightHandMiddle2
                        {
                          OFFSET 0 -4.65 0
                          CHANNELS 6 Xposition Yposition Zposition Zrotation Xrotation Yrotation
                          JOINT RightHandMiddle3
                          {
                            OFFSET 0 -3.3 0
                            CHANNELS 6 Xposition Yposition Zposition Zrotation Xrotation Yrotation
                            End Site
                            {
                              OFFSET 0 -2.7 0
                            }
                          }
                        }
                      }
                    }
                    JOINT RightHandRing
                    {
                      OFFSET 0.5 -2.15 -0.8
                      CHANNELS 6 Xposition Yposition Zposition Zrotation Xrotation Yrotation
                      JOINT RightHandRing1
                      {
                        OFFSET 0 -7.75 -0.2
                        CHANNELS 6 Xposition Yposition Zposition Zrotation Xrotation Yrotation
                        JOINT RightHandRing2
                        {
                          OFFSET 0 -3.8 0
                          CHANNELS 6 Xposition Yposition Zposition Zrotation Xrotation Yrotation
                          JOINT RightHandRing3
                          {
                            OFFSET 0 -3.4 0
                            CHANNELS 6 Xposition Yposition Zposition Zrotation Xrotation Yrotation
                            End Site
                            {
                              OFFSET 0 -2.6 0
                            }
                          }
                        }
                      }
                    }
                    JOINT RightHandPinky
                    {
                      OFFSET 0.75 -1.75 -1.85
                      CHANNELS 6 Xposition Yposition Zposition Zrotation Xrotation Yrotation
                      JOINT RightHandPinky1
                      {
                        OFFSET 0 -7.15 -1
                        CHANNELS 6 Xposition Yposition Zposition Zrotation Xrotation Yrotation
                        JOINT RightHandPinky2
                        {
                          OFFSET 0 -3 0
                          CHANNELS 6 Xposition Yposition Zposition Zrotation Xrotation Yrotation
                          JOINT RightHandPinky3
                          {
                            OFFSET 0 -2.35 0
                            CHANNELS 6 Xposition Yposition Zposition Zrotation Xrotation Yrotation
                            End Site
                            {
                              OFFSET 0 -2.1 0
                            }
                          }
                        }
                      }
                    }
                  }
                }
              }
            }
          }
        }
      }
    }
  }
  JOINT LeftUpLeg
  {
    OFFSET 8 0 0
    CHANNELS 6 Xposition Yposition Zposition Zrotation Xrotation Yrotation
    JOINT LeftLeg
    {
      OFFSET 0 -45 -1
      CHANNELS 6 Xposition Yposition Zposition Zrotation Xrotation Yrotation
      JOINT LeftFoot
      {
        OFFSET 0 -41 -2
        CHANNELS 6 Xposition Yposition Zposition Zrotation Xrotation Yrotation
        JOINT LeftToeBase
        {
          OFFSET 0 -7.5 12.5
          CHANNELS 6 Xposition Yposition Zposition Zrotation Xrotation Yrotation
          JOINT LeftFootToe
          {
            OFFSET 0 0 4
            CHANNELS 6 Xposition Yposition Zposition Zrotation Xrotation Yrotation
            End Site
            {
              OFFSET 0 0 0
            }
          }
        }
      }
    }
  }
  JOINT RightUpLeg
  {
    OFFSET -8 0 0
    CHANNELS 6 Xposition Yposition Zposition Zrotation Xrotation Yrotation
    JOINT RightLeg
    {
      OFFSET 0 -45 -1
      CHANNELS 6 Xposition Yposition Zposition Zrotation Xrotation Yrotation
      JOINT RightFoot
      {
        OFFSET 0 -41 -2
        CHANNELS 6 Xposition Yposition Zposition Zrotation Xrotation Yrotation
        JOINT RightToeBase
        {
          OFFSET 0 -7.5 12.5
          CHANNELS 6 Xposition Yposition Zposition Zrotation Xrotation Yrotation
          JOINT RightFootToe
          {
            OFFSET 0 0 4
            CHANNELS 6 Xposition Yposition Zposition Zrotation Xrotation Yrotation
            End Site
            {
              OFFSET 0 0 0
            }
          }
        }
      }
    }
  }
}
MOTION
Frames:	3
Frame Time:	0.0111111
-22.0988 93.0402 28.4205 -0.0978254 0.191536 133.93 0 8 0 0.12656 -3.99069 -2.05482 0 8 -3.55271e-15 -0.238032 1.90763 -0.676065 -1.77636e-15 8 0 -0.120898 0.9538 -0.339121 0 8 0 -0.120872 0.955006 -0.339062 -3.55271e-15 17 0 -0.430378 -4.35391 1.05671 -1.77636e-15 10.8 -3.55271e-15 -2.19836 -1.35131 2.55764 5 17 0 -1.76318 -6.25129 -4.15776 6.45 -2.84217e-14 0 1.05104 0.385999 1.36398 6.45 0 0 2.40022 0.837606 -11.8274 1.77636e-15 -32.4 -2 0.210804 0.310605 13.2671 -1.77636e-15 -25.65 2 -2.13447 3.26601 -3.49501 -0.5 -1.5 2.65 -3.00446 -7.85959 -5.19526 -1.77636e-15 -3.8 3.7 -2.8179e-16 10.1151 1.29231e-14 1.77636e-15 -3 2.7 3.65558e-16 5.64151 6.39207e-15 3.55271e-15 -1.9 1.6 -1.98785e-16 -3.97569e-16 3.18055e-15 0 -8.3 1.9 -5.67713e-17 1.02259 3.18106e-15 1.77636e-15 -4.5 3.55271e-15 9.93923e-17 -1.98785e-16 -0 -5.32907e-15 -3.4 0 9.93923e-17 -1.49089e-16 -0 -0.25 -2.2 0.4 -1.98785e-16 -3.97569e-16 3.18055e-15 -3.55271e-15 -8.3 1 -0.0143957 1.14098 -0 0 -4.65 -7.10543e-15 -4.96962e-17 0 -3.18055e-15 3.55271e-15 -3.3 3.55271e-15 -4.96962e-17 0 -0 -0.5 -2.15 -0.8 -1.98785e-16 -3.97569e-16 3.18055e-15 0 -7.75 -0.2 -0.0272755 1.39601 -0 -1.77636e-15 -3.8 -3.55271e-15 -5.51738e-33 -4.96962e-17 -6.36111e-15 0 -3.4 0 -4.96962e-17 -1.49089e-16 -6.36111e-15 -0.75 -1.75 -1.85 -1.98785e-16 -3.97569e-16 3.18055e-15 3.55271e-15 -7.15 -1 -0.0329663 1.51117 3.18166e-15 -5.32907e-15 -3 0 -4.96962e-17 4.96962e-17 -0 1.77636e-15 -2.35 0 -4.96962e-17 9.93923e-17 3.18055e-15 -5 17 0 0.464989 -4.97139 -1.81841 -6.45 -2.84217e-14 -7.10543e-15 0.16959 0.135084 -0.816262 -6.45 0 -3.55271e-15 2.6601 -1.43383 7.90413 0 -32.4 -2 -1.7699 -2.46836 -5.66444 3.55271e-15 -25.65 2 1.72801 2.30104 3.80506 0.5 -1.5 2.65 -1.48644 -1.83854 -0.621212 0 -3.8 3.7 0 9.60923 -0 3.55271e-15 -3 2.7 4.74517e-16 -0.101082 -1.27222e-14 0 -1.9 1.6 -7.95139e-16 -7.95139e-16 -3.18055e-15 0 -8.3 1.9 1.46868 -0.287365 0.000855559 0 -4.5 3.55271e-15 5.499 -1.59028e-15 -6.36111e-15 1.77636e-15 -3.4 -1.77636e-15 5.11209 -3.18055e-15 -0 0.25 -2.2 0.4 -7.95139e-16 -7.95139e-16 -3.18055e-15 7.10543e-15 -8.3 1 1.10448 0.0121783 -0.00101346 0 -4.65 3.55271e-15 7.95139e-16 -7.95139e-16 3.18055e-15 1.77636e-15 -3.3 3.55271e-15 -7.95139e-16 -7.95139e-16 -3.18055e-15 0.5 -2.15 -0.8 -7.95139e-16 -7.95139e-16 -3.18055e-15 -1.77636e-15 -7.75 -0.2 0.375781 0.610342 -3.18074e-15 -1.77636e-15 -3.8 0 6.06384 -1.59028e-15 -3.18055e-15 0 -3.4 0 5.59791 1.59028e-15 -1.27222e-14 0.75 -1.75 -1.85 -7.95139e-16 -7.95139e-16 -3.18055e-15 0 -7.15 -1 0.0155876 0.912082 -0 0 -3 0 -1.76556e-31 -7.95139e-16 -1.27222e-14 1.77636e-15 -2.35 3.55271e-15 8.82781e-32 7.95139e-16 -6.36111e-15 8 -1.42109e-14 0 -0.604729 1.73832 1.6626 0 -45 -1 -0.00681427 3.84008 0.101748 3.55271e-15 -41 -2 0.338584 -5.52177 -10.7754 3.55271e-15 -7.5 12.5 1.55301e-18 0 3.18055e-15 0 -4.33681e-19 4 7.00589 1.96656 4.1574 -8 0 0 -0.585177 -4.11664 0.28031 1.77636e-15 -45 -1 -0.0424699 10.2487 0.71053 1.77636e-15 -41 -2 0.357535 -6.07629 4.48167 -1.77636e-15 -7.5 12.5 7.76503e-19 -1.55301e-18 3.18055e-15 -3.55271e-15 0 4 -0.193299 0.013289 -14.8113 
-22.0992 93.0401 28.4174 -0.0980412 0.191815 133.92 1.77636e-15 8 0 0.11823 -3.99132 -2.0554 -3.55271e-15 8 0 -0.2348 1.90781 -0.673086 3.55271e-15 8 -3.55271e-15 -0.119377 0.953994 -0.337564 0 8 7.10543e-15 -0.119351 0.955086 -0.337506 -1.77636e-15 17 0 -0.431725 -4.34798 1.05141 -1.77636e-15 10.8 3.55271e-15 -2.18901 -1.33049 2.54564 5 17 0 -1.76983 -6.25499 -4.17092 6.45 2.84217e-14 -7.10543e-15 1.05091 0.385969 1.36155 6.45 0 -7.10543e-15 2.4001 0.837518 -11.8376 -3.55271e-15 -32.4 -2 0.218134 0.314635 13.2642 -1.77636e-15 -25.65 2 -2.13765 3.26592 -3.49052 -0.5 -1.5 2.65 -3.00457 -7.85928 -5.19737 8.88178e-16 -3.8 3.7 9.64966e-16 10.1149 -3.23077e-15 8.88178e-16 -3 2.7 0 5.64475 -0 0 -1.9 1.6 -1.98785e-16 2.98177e-16 -9.54166e-15 0 -8.3 1.9 -4.26414e-16 1.02035 -9.54318e-15 0 -4.5 0 -9.93923e-17 -9.93923e-17 6.36111e-15 -1.77636e-15 -3.4 3.55271e-15 -9.93923e-17 0 6.36111e-15 -0.25 -2.2 0.4 -1.98785e-16 2.98177e-16 -9.54166e-15 1.77636e-15 -8.3 1 -0.0143957 1.1412 -1.27247e-14 0 -4.65 0 1.49089e-16 4.96962e-17 -3.18055e-15 3.55271e-15 -3.3 0 9.93923e-17 2.48481e-16 -3.18055e-15 -0.5 -2.15 -0.8 -1.98785e-16 2.98177e-16 -9.54166e-15 0 -7.75 -0.2 -0.0272755 1.39613 -6.363e-15 0 -3.8 3.55271e-15 -1.65521e-32 9.93923e-17 9.54166e-15 0 -3.4 -7.10543e-15 4.96962e-17 1.2424e-16 6.36111e-15 -0.75 -1.75 -1.85 -1.98785e-16 2.98177e-16 -9.54166e-15 0 -7.15 -1 -0.0329663 1.51132 -6.36332e-15 5.32907e-15 -3 0 4.96962e-17 7.45443e-17 3.18055e-15 -1.77636e-15 -2.35 -7.10543e-15 -4.96962e-17 7.45443e-17 3.18055e-15 -5 17 0 0.460752 -4.97282 -1.82843 -6.45 0 0 0.169675 0.135509 -0.816335 -6.45 0 3.55271e-15 2.66026 -1.43393 7.89751 0 -32.4 -2 -1.76997 -2.46898 -5.66201 7.10543e-15 -25.65 2 1.71968 2.30135 3.7939 0.5 -1.5 2.65 -1.48661 -1.83887 -0.628557 3.55271e-15 -3.8 3.7 -2.15591e-15 9.61799 1.29036e-14 0 -3 2.7 -2.92566e-16 -0.101082 3.18056e-15 0 -1.9 1.6 7.95139e-16 -7.95139e-16 1.27222e-14 0 -8.3 1.9 1.47356 -0.285639 0.000855559 0 -4.5 0 5.49903 0 -0 1.77636e-15 -3.4 -1.77636e-15 5.11165 1.59028e-15 6.36111e-15 0.25 -2.2 0.4 7.95139e-16 -7.95139e-16 1.27222e-14 0 -8.3 1 1.10746 0.0127803 -0.00101346 -1.77636e-15 -4.65 3.55271e-15 -7.95139e-16 -7.95139e-16 -6.36111e-15 0 -3.3 -3.55271e-15 -7.95139e-16 7.95139e-16 -6.36111e-15 0.5 -2.15 -0.8 7.95139e-16 -7.95139e-16 1.27222e-14 -3.55271e-15 -7.75 -0.2 0.377031 0.610252 3.18074e-15 -1.77636e-15 -3.8 -3.55271e-15 6.05784 -1.59028e-15 -1.27222e-14 3.55271e-15 -3.4 0 5.5928 0 -9.54166e-15 0.75 -1.75 -1.85 7.95139e-16 -7.95139e-16 1.27222e-14 -1.77636e-15 -7.15 -1 0.0155876 0.912312 3.18096e-15 0 -3 -3.55271e-15 -7.95139e-16 1.59028e-15 -3.18055e-15 0 -2.35 -3.55271e-15 -1.59028e-15 0 -3.18055e-15 8 -1.42109e-14 0 -0.609428 1.73981 1.66204 3.55271e-15 -45 -1 -0.00681514 3.84011 0.10176 0 -41 -2 0.34218 -5.52235 -10.7644 -1.77636e-15 -7.5 12.5 8.62091e-35 1.55301e-18 -3.18055e-15 1.77636e-15 8.67362e-19 4 7.00579 1.96665 4.15728 -8 0 7.10543e-15 -0.588911 -4.1203 0.28055 0 -45 -1 -0.0426238 10.2556 0.711217 -1.77636e-15 -41 -2 0.360606 -6.07956 4.4977 3.55271e-15 -7.5 12.5 4.31046e-35 7.76503e-19 -3.18055e-15 0 -4.33681e-19 4 -0.196808 0.0134995 -14.8112 
-22.0996 93.04 28.4145 -0.0982096 0.192043 133.909 3.55271e-15 8 7.10543e-15 0.11103 -3.99199 -2.056 0 8 0 -0.231726 1.908 -0.670098 0 8 -3.55271e-15 -0.118645 0.954186 -0.336 -1.77636e-15 8 0 -0.11862 0.955166 -0.335942 1.77636e-15 17 0 -0.436827 -4.33907 1.04663 1.77636e-15 10.8 0 -2.18008 -1.30135 2.53504 5 17 0 -1.77643 -6.25887 -4.18319 6.45 0 0 1.05079 0.385943 1.35909 6.45 -2.84217e-14 0 2.39996 0.837359 -11.8466 0 -32.4 -2 0.225733 0.318884 13.257 1.77636e-15 -25.65 2 -2.1407 3.26589 -3.48853 -0.5 -1.5 2.65 -3.00467 -7.85899 -5.19961 -1.77636e-15 -3.8 3.7 -9.64943e-16 10.1145 3.23076e-15 -8.88178e-16 -3 2.7 0 5.64773 -0 -1.77636e-15 -1.9 1.6 -3.97569e-16 -1.98785e-16 -1.27222e-14 0 -8.3 1.9 1.1306e-16 1.01825 -6.36211e-15 0 -4.5 0 -9.93923e-17 1.49089e-16 -0 0 -3.4 0 -9.93923e-17 1.98785e-16 3.18055e-15 -0.25 -2.2 0.4 -3.97569e-16 -1.98785e-16 -1.27222e-14 0 -8.3 1 -0.0143957 1.14139 -0 -3.55271e-15 -4.65 3.55271e-15 -4.96962e-17 4.96962e-17 3.18055e-15 0 -3.3 0 -9.93923e-17 2.48481e-16 3.18055e-15 -0.5 -2.15 -0.8 -3.97569e-16 -1.98785e-16 -1.27222e-14 3.55271e-15 -7.75 -0.2 -0.0272755 1.39623 -6.363e-15 1.77636e-15 -3.8 -3.55271e-15 -4.96962e-17 1.2424e-16 6.36111e-15 0 -3.4 -3.55271e-15 4.96962e-17 7.45443e-17 -3.18055e-15 -0.75 -1.75 -1.85 -3.97569e-16 -1.98785e-16 -1.27222e-14 -1.77636e-15 -7.15 -1 -0.0329663 1.51143 -3.18166e-15 0 -3 7.10543e-15 -0 0 3.18055e-15 -3.55271e-15 -2.35 0 4.96962e-17 7.45443e-17 9.54166e-15 -5 17 7.10543e-15 0.457539 -4.97434 -1.83787 -6.45 -2.84217e-14 3.55271e-15 0.168652 0.135916 -0.816407 -6.45 -2.84217e-14 0 2.66059 -1.43952 7.89129 -7.10543e-15 -32.4 -2 -1.76904 -2.46974 -5.65594 0 -25.65 2 1.71144 2.30176 3.78571 0.5 -1.5 2.65 -1.48673 -1.83903 -0.634432 0 -3.8 3.7 2.66906e-15 9.62523 -6.45194e-15 0 -3 2.7 -1.98785e-16 -0.101082 -0 0 -1.9 1.6 7.95139e-16 7.95139e-16 3.18055e-15 -3.55271e-15 -8.3 1.9 1.47869 -0.280785 0.000855558 1.77636e-15 -4.5 0 5.49909 3.18055e-15 -3.18055e-15 1.77636e-15 -3.4 -3.55271e-15 5.11121 0 -3.18055e-15 0.25 -2.2 0.4 7.95139e-16 7.95139e-16 3.18055e-15 0 -8.3 1 1.11133 0.0174133 -0.00101346 -1.77636e-15 -4.65 0 -7.95139e-16 0 3.18055e-15 -3.55271e-15 -3.3 0 -7.95139e-16 -7.95139e-16 -9.54166e-15 0.5 -2.15 -0.8 7.95139e-16 7.95139e-16 3.18055e-15 0 -7.75 -0.2 0.378539 0.614453 -0 0 -3.8 3.55271e-15 6.05059 0 -3.18055e-15 -3.55271e-15 -3.4 0 5.58661 -1.59028e-15 -3.18055e-15 0.75 -1.75 -1.85 7.95139e-16 7.95139e-16 3.18055e-15 1.77636e-15 -7.15 -1 0.0155876 0.91257 -0 3.55271e-15 -3 -3.55271e-15 -7.95139e-16 7.95139e-16 -0 0 -2.35 3.55271e-15 -4.41391e-32 7.95139e-16 3.18055e-15 8 0 7.10543e-15 -0.61355 1.74124 1.66153 1.77636e-15 -45 -1 -0.00681586 3.84014 0.10177 0 -41 -2 0.34596 -5.52296 -10.7526 0 -7.5 12.5 1.55301e-18 -3.10601e-18 3.18055e-15 1.77636e-15 -4.33681e-19 4 7.00569 1.96674 4.15715 -8 0 7.10543e-15 -0.592353 -4.12368 0.280801 0 -45 -1 -0.0427583 10.2613 0.711879 3.55271e-15 -41 -2 0.36338 -6.08198 4.51162 3.55271e-15 -7.5 12.5 -7.76503e-19 0 -9.54166e-15 -1.77636e-15 4.33681e-19 4 -0.199667 0.0134237 -14.8112 
